<?xml version="1.0" standalone="no"?>
<!DOCTYPE svg PUBLIC "-//W3C//DTD SVG 20010904//EN"
 "http://www.w3.org/TR/2001/REC-SVG-20010904/DTD/svg10.dtd">
<svg version="1.0" xmlns="http://www.w3.org/2000/svg"
 width="834.000000pt" height="300.000000pt" viewBox="0 0 834.000000 300.000000"
 preserveAspectRatio="xMidYMid meet">

<g transform="translate(0.000000,300.000000) scale(0.100000,-0.100000)"
fill="#000000" stroke="none">
<path d="M1300 2674 c-285 -36 -568 -108 -846 -216 l-102 -39 -7 -167 c-12
-273 7 -631 46 -868 37 -229 91 -389 167 -501 81 -119 376 -382 578 -515 125
-82 314 -188 336 -188 45 0 464 265 608 385 313 261 438 503 480 925 12 120
15 824 4 897 l-6 42 -107 45 c-191 81 -373 134 -611 177 -86 16 -164 22 -310
24 -107 2 -211 1 -230 -1z m475 -119 c195 -30 396 -84 582 -157 l101 -40 7
-136 c4 -76 5 -263 2 -417 -9 -419 -36 -577 -132 -771 -80 -161 -191 -285
-398 -445 -88 -68 -282 -193 -404 -260 l-62 -34 -48 25 c-235 123 -515 337
-706 539 -80 85 -109 133 -152 253 -79 223 -115 525 -115 970 l0 259 43 18
c23 10 112 41 197 69 424 138 757 177 1085 127z"/>
<path d="M1293 2494 c-164 -20 -324 -58 -526 -125 -98 -32 -187 -64 -198 -69
-18 -10 -19 -23 -19 -250 l0 -240 97 76 c308 241 644 408 1003 499 86 22 265
55 298 55 7 0 -121 -141 -286 -312 -496 -519 -876 -936 -949 -1040 l-27 -39
19 -37 c29 -57 307 -328 428 -418 114 -86 321 -214 344 -214 8 0 68 34 135 76
534 331 712 567 754 998 l7 71 -75 -100 c-218 -293 -469 -507 -765 -655 -111
-55 -307 -128 -393 -145 -29 -6 -33 -5 -24 6 85 107 1254 1662 1254 1668 0 21
-296 123 -466 160 -224 50 -406 60 -611 35z"/>
<path d="M4437 2413 c-10 -16 -29 -130 -25 -154 3 -23 4 -22 25 14 12 20 34
42 48 47 15 6 76 10 136 10 l109 0 0 -353 c0 -390 -1 -397 -61 -397 -16 0 -29
-4 -29 -10 0 -6 70 -10 190 -10 120 0 190 4 190 10 0 6 -18 10 -39 10 -23 0
-48 8 -62 19 l-24 19 -3 356 -3 356 103 0 c123 0 170 -17 178 -64 10 -59 25
-30 28 54 l3 85 -353 0 c-194 0 -365 3 -380 8 -15 4 -29 4 -31 0z"/>
<path d="M6415 2409 c-69 -11 -131 -36 -192 -76 -63 -41 -104 -91 -141 -170
-25 -53 -27 -68 -27 -178 0 -114 2 -123 32 -187 54 -114 161 -196 304 -235 79
-21 324 -24 381 -5 49 18 55 27 69 109 16 100 5 124 -27 56 -14 -29 -38 -62
-54 -73 -68 -48 -218 -51 -318 -5 -76 35 -153 113 -189 189 -25 55 -28 72 -28
171 0 137 19 199 82 267 61 65 113 83 233 83 118 -1 186 -22 229 -71 29 -32
36 -48 43 -99 2 -11 8 -19 13 -18 12 3 27 205 17 215 -4 4 -55 14 -113 22
-113 17 -232 19 -314 5z"/>
<path d="M2921 2348 c-13 -78 -14 -138 -2 -138 5 0 12 13 16 30 7 32 53 77 88
85 12 3 95 4 184 3 l161 -3 -249 -373 c-137 -205 -247 -377 -244 -382 4 -6
135 -10 340 -10 266 0 334 3 338 13 3 7 11 48 17 91 16 96 2 122 -28 53 -34
-77 -48 -82 -270 -85 -159 -3 -193 -1 -186 10 4 7 66 99 138 203 159 232 356
534 356 546 0 5 -129 9 -294 9 -161 0 -307 3 -324 6 l-30 6 -11 -64z"/>
<path d="M3975 2400 c-262 -5 -304 -10 -213 -25 22 -3 42 -14 48 -25 11 -21
12 -689 1 -730 -4 -16 -18 -28 -36 -34 -17 -5 -37 -11 -45 -14 -8 -3 109 -9
260 -14 151 -4 281 -6 288 -3 17 6 28 40 36 113 6 49 4 62 -7 62 -7 0 -18 -17
-23 -37 -12 -52 -56 -73 -150 -73 -81 0 -130 14 -144 40 -6 10 -10 87 -10 171
l0 152 105 -5 c115 -5 141 -17 147 -67 6 -54 23 -18 30 66 5 47 6 88 4 90 -1
2 -16 -3 -32 -12 -21 -11 -61 -15 -141 -15 l-113 0 0 152 0 151 113 -6 c104
-6 114 -8 135 -32 12 -15 22 -35 22 -46 0 -10 4 -19 10 -19 9 0 15 29 24 118
4 45 3 52 -12 50 -9 -2 -143 -5 -297 -8z"/>
<path d="M5573 2403 c-251 -3 -334 -12 -233 -26 74 -10 70 10 70 -383 0 -202
-4 -364 -10 -378 -6 -16 -20 -28 -37 -32 -15 -3 -35 -8 -43 -12 -18 -7 516
-24 546 -17 24 5 30 21 40 114 6 51 4 63 -7 59 -7 -2 -17 -18 -21 -34 -13 -52
-41 -68 -124 -72 -92 -5 -139 3 -165 29 -17 17 -19 34 -19 175 l0 157 105 -5
c115 -5 141 -17 147 -67 2 -14 8 -26 13 -26 9 0 30 173 22 181 -2 3 -17 -2
-33 -11 -21 -11 -61 -15 -142 -15 l-113 0 3 148 3 147 106 -1 c119 -2 147 -12
156 -55 6 -33 21 -47 27 -27 2 7 7 46 10 86 4 64 3 72 -12 70 -9 -2 -140 -4
-289 -5z"/>
<path d="M6985 2390 c3 -5 17 -10 31 -10 28 0 65 -17 76 -34 12 -17 10 -676
-2 -715 -11 -40 -24 -51 -62 -51 -16 0 -28 -4 -28 -10 0 -6 70 -10 190 -10
120 0 190 4 190 10 0 6 -18 10 -40 10 -71 0 -76 12 -83 206 -4 93 -3 172 1
176 5 5 107 7 228 6 l219 -3 -1 -173 c-1 -191 -8 -212 -66 -212 -15 0 -28 -4
-28 -10 0 -6 70 -10 190 -10 120 0 190 4 190 10 0 6 -18 10 -39 10 -23 0 -48
8 -62 19 l-24 19 0 367 c0 351 1 367 19 381 11 8 32 14 48 14 15 0 28 5 28 10
0 6 -68 10 -185 10 -117 0 -185 -4 -185 -10 0 -5 15 -10 34 -10 19 0 44 -8 57
-19 22 -17 23 -24 23 -167 l1 -149 -225 0 -225 0 3 150 c3 137 5 152 24 168
11 9 31 17 44 17 12 0 26 5 29 10 4 7 -60 10 -185 10 -125 0 -189 -3 -185 -10z"/>
<path d="M3547 1088 c-4 -62 -7 -181 -7 -264 0 -154 -5 -174 -41 -174 -10 0
-21 -4 -24 -10 -4 -6 32 -10 99 -10 64 0 106 4 106 10 0 6 -11 10 -25 10 -14
0 -29 8 -35 20 -6 11 -14 96 -17 189 l-6 169 194 -190 c200 -196 234 -226 247
-214 4 4 9 121 11 259 1 139 7 260 12 270 6 9 18 17 29 17 10 0 22 5 25 10 4
6 -32 10 -100 10 -68 0 -104 -4 -100 -10 3 -5 17 -10 31 -10 37 0 44 -33 44
-218 l0 -167 -208 208 c-114 114 -212 207 -218 207 -7 0 -13 -42 -17 -112z"/>
<path d="M6330 1189 c-82 -25 -126 -83 -117 -157 7 -61 29 -88 127 -153 90
-60 118 -97 106 -143 -14 -56 -66 -84 -133 -71 -41 7 -93 54 -93 84 0 11 -4
22 -9 25 -5 3 -12 -24 -16 -60 -7 -65 -7 -66 -33 -59 -33 8 -82 54 -169 158
l-65 78 45 48 c51 54 62 84 54 138 -8 48 -49 89 -102 102 -56 14 -325 15 -325
1 0 -5 10 -10 23 -10 45 0 47 -11 47 -253 0 -236 -5 -267 -40 -267 -11 0 -20
-4 -20 -10 0 -6 45 -10 115 -10 70 0 115 4 115 10 0 6 -10 10 -23 10 -40 0
-47 18 -47 117 l0 93 40 0 c38 0 42 -3 105 -90 95 -128 105 -134 245 -139 227
-9 255 -7 299 22 86 57 102 167 35 247 -14 17 -57 49 -95 71 -108 65 -130 103
-86 155 18 20 35 28 75 32 47 4 54 2 82 -26 16 -17 30 -38 30 -46 0 -9 5 -16
10 -16 14 0 13 107 -1 116 -20 12 -142 14 -179 3z m-428 -78 c24 -27 28 -40
28 -92 0 -54 -3 -64 -30 -90 -26 -26 -36 -30 -77 -27 l-48 3 -3 124 -3 124 53
-5 c42 -5 57 -11 80 -37z"/>
<path d="M6955 1190 c-2 -3 -6 -27 -10 -55 l-7 -50 26 28 c25 25 33 27 106 27
l80 0 0 -233 c0 -242 -2 -257 -43 -257 -10 0 -15 -4 -12 -10 4 -6 55 -10 121
-10 69 0 114 4 114 10 0 6 -10 10 -23 10 -45 0 -47 10 -47 257 l0 233 68 0
c70 0 112 -17 112 -46 0 -8 5 -14 10 -14 6 0 10 20 10 45 0 25 4 45 8 45 29 0
192 -239 212 -309 11 -41 12 -108 2 -166 -5 -29 -13 -41 -27 -43 -11 -2 -24
-8 -29 -13 -6 -5 41 -9 117 -9 78 0 127 4 127 10 0 6 -13 10 -28 10 -46 0 -52
15 -52 130 l0 106 75 122 c72 115 112 162 141 162 7 0 16 5 19 10 4 6 -27 10
-87 10 -79 -1 -90 -3 -75 -14 9 -7 17 -19 17 -27 0 -24 -121 -222 -130 -213
-5 5 -36 56 -69 113 -46 80 -58 108 -49 118 6 7 9 15 6 18 -6 6 -679 11 -683
5z"/>
<path d="M2815 1180 c3 -5 17 -10 30 -10 13 0 27 -6 32 -12 4 -7 10 -101 13
-209 5 -193 5 -196 33 -237 48 -73 156 -106 271 -82 45 9 67 21 101 53 57 55
65 90 65 279 0 168 8 208 39 208 11 0 23 5 26 10 4 6 -32 10 -100 10 -68 0
-104 -4 -100 -10 3 -5 14 -10 24 -10 37 0 41 -19 41 -202 0 -205 -9 -244 -67
-279 -28 -17 -45 -21 -95 -17 -53 4 -65 9 -89 36 -41 46 -49 89 -49 272 0 172
4 190 42 190 10 0 18 5 18 10 0 6 -47 10 -121 10 -77 0 -118 -4 -114 -10z"/>
<path d="M4225 1180 c3 -5 15 -10 26 -10 32 0 39 -41 38 -243 0 -232 -6 -271
-37 -275 -12 -2 -22 -8 -22 -13 0 -5 53 -9 120 -9 73 0 120 4 120 10 0 6 -13
10 -28 10 -51 0 -52 6 -52 256 0 128 3 239 6 248 3 9 14 16 24 16 11 0 22 5
25 10 4 6 -35 10 -110 10 -75 0 -114 -4 -110 -10z"/>
<path d="M4475 1180 c3 -5 17 -10 30 -10 13 0 31 -10 41 -22 9 -13 64 -135
123 -273 66 -154 112 -250 121 -250 8 0 51 82 107 205 137 303 154 334 181
338 12 2 22 8 22 13 0 5 -40 9 -90 9 -49 0 -90 -2 -90 -5 0 -3 12 -10 26 -15
20 -8 24 -14 19 -33 -19 -61 -142 -349 -150 -349 -13 0 -147 352 -141 369 3 7
12 13 21 13 8 0 15 5 15 10 0 6 -47 10 -121 10 -77 0 -118 -4 -114 -10z"/>
<path d="M5115 1180 c3 -5 16 -10 29 -10 44 0 46 -12 46 -246 0 -123 -4 -234
-10 -248 -6 -16 -17 -26 -30 -26 -11 0 -20 -4 -20 -10 0 -6 68 -10 184 -10
207 0 196 -4 196 78 l0 47 -18 -35 c-14 -28 -25 -37 -59 -44 -49 -10 -106 -1
-128 20 -11 12 -15 39 -15 115 l0 99 63 0 c67 0 107 -18 107 -48 0 -15 2 -15
10 -2 5 8 10 37 10 63 0 44 -1 47 -19 37 -11 -5 -54 -10 -96 -10 l-76 0 3 98
3 97 75 -4 c81 -3 100 -12 100 -44 0 -40 18 -2 22 46 l3 47 -193 0 c-126 0
-191 -3 -187 -10z"/>
<path d="M6640 1180 c0 -5 8 -10 18 -10 39 0 42 -16 42 -253 0 -236 -5 -267
-40 -267 -11 0 -20 -4 -20 -10 0 -6 47 -10 120 -10 73 0 120 4 120 10 0 6 -14
10 -30 10 -24 0 -33 6 -40 26 -13 34 -13 450 0 475 6 10 20 19 30 19 11 0 20
5 20 10 0 6 -43 10 -110 10 -67 0 -110 -4 -110 -10z"/>
</g>
</svg>
